<?xml version="1.0" encoding="utf-8"?>
<!-- Generator: Adobe Illustrator 15.0.2, SVG Export Plug-In . SVG Version: 6.00 Build 0)  -->
<!DOCTYPE svg PUBLIC "-//W3C//DTD SVG 1.1//EN" "http://www.w3.org/Graphics/SVG/1.1/DTD/svg11.dtd">
<svg version="1.1" id="Layer_1" xmlns="http://www.w3.org/2000/svg" xmlns:xlink="http://www.w3.org/1999/xlink" x="0px" y="0px"
	 width="512px" height="512px" viewBox="0 0 512 512" enable-background="new 0 0 512 512" xml:space="preserve">
<g>
	
		<image overflow="visible" opacity="0.3" width="543" height="401" xlink:href="849A99C8.png"  transform="matrix(1 0 0 1 -12.5 58.5)">
	</image>
	<g>
		<g>
			<path fill="#E6E6E6" stroke="#B3B3B3" stroke-miterlimit="10" d="M511.943,377.726L376.601,243.895l-120.476,92.309
				L135.343,244.28L0.414,378.461l0.092,40.782c0.018,11.746,10.213,21.239,22.715,21.178l466.12-0.746
				c12.532,0.036,22.675-9.478,22.659-21.224L511.943,377.726z"/>
			<polygon fill="#E6E6E6" stroke="#B3B3B3" stroke-miterlimit="10" points="0.066,141.317 0.337,328.243 106.698,222.484 			"/>
			<polygon fill="#E6E6E6" stroke="#B3B3B3" stroke-miterlimit="10" points="511.857,327.451 511.581,140.561 405.202,222.035 			
				"/>
			<path fill="#E6E6E6" stroke="#B3B3B3" stroke-miterlimit="10" d="M180.126,123.716c-2.946,0-4.747,2.455-4.747,5.891v19.149
				c0,3.272,1.801,5.728,4.747,5.728c3.108,0,4.909-2.455,4.909-5.728v-19.149C185.035,126.171,183.234,123.716,180.126,123.716z"/>
			<path fill="#E6E6E6" stroke="#B3B3B3" stroke-miterlimit="10" d="M287.833,181.977c3.106,0,5.073-3.437,5.073-7.199v-20.621
				c-6.055,3.109-9.329,8.183-9.329,13.746v7.692C283.577,179.194,284.727,181.977,287.833,181.977z"/>
			<path fill="#E6E6E6" stroke="#B3B3B3" stroke-miterlimit="10" d="M180.779,209.308c4.583,0,6.711-2.945,6.711-6.384v-9.49
				c0-3.438-1.964-6.384-6.711-6.384c-4.419,0-6.381,2.945-6.381,6.384v9.654C174.398,206.362,176.523,209.308,180.779,209.308z"/>
			<path fill="#E6E6E6" stroke="#B3B3B3" stroke-miterlimit="10" d="M511.51,101.879v-9.106
				c-0.025-11.76-10.208-21.229-22.716-21.193L22.662,72.264C10.132,72.294-0.021,81.784,0,93.536v9.106l256.069,194.899
				L511.51,101.879z M335.635,82.802h11.945v108.994h-11.945V82.802z M314.514,89.676h11.128v14.073h-11.128V89.676z
				 M314.187,113.242h11.945v78.554h-11.945V113.242z M272.122,169.867c0-13.256,8.997-20.947,20.784-27.168v-12.929
				c0-3.6-1.149-5.728-4.092-5.728c-3.106,0-4.088,2.128-4.088,5.891v8.185h-10.801v-7.528c0-10.803,5.559-18.492,15.379-18.492
				c9.819,0,15.057,7.855,15.057,18.983v48.604c0,2.128,0.659,3.438,2.621,3.766v9.654h-2.784c-3.93,0-7.036-2.289-8.507-7.199
				c-2.131,4.583-6.224,7.199-10.802,7.199c-7.857,0-12.768-6.872-12.768-18.164V169.867z M195.183,119.787
				c-1.147,0-2.128-0.327-3.438-0.981c3.274,3.766,4.746,8.019,4.746,12.929v14.403c0,11.128-6.874,19.474-16.364,19.474
				c-0.654,0-2.292-0.163-2.782-0.327c-2.455,0-4.093,2.455-4.093,5.4c0,3.109,1.965,5.4,7.855,5.4
				c11.291,0,17.349,6.055,17.349,16.855v8.676c0,12.602-6.875,19.146-18.003,19.146c-10.31,0-17.512-6.218-17.512-17.839v-7.691
				c0-5.074,2.292-9,6.221-11.128c-3.766-1.475-6.221-5.892-6.221-10.147c0-5.236,3.766-10.311,8.676-11.128
				c-5.566-2.128-7.692-9.983-7.692-17.348v-14.074c0-11.291,7.036-19.31,16.202-19.31c2.781,0,4.419,0.817,5.563,0.817
				c4.746,0,6.218-3.109,6.218-7.365h8.839c0.491,2.455,0.491,3.929,0.491,5.564C201.237,117.005,198.782,119.787,195.183,119.787z
				 M248.374,130.917l-8.673,60.879h-10.964l-8.183-60.879l-2.291-21.931v82.81h-12.603V82.802h19.474l7.692,55.15l2.455,21.769
				l2.455-21.769l7.528-55.15h19.146v108.994h-13.583v-82.81L248.374,130.917z"/>
		</g>
	</g>
</g>
</svg>
